<svg class="svg-icon" style="width: 1em;height: 1em;vertical-align: middle;fill: #fff;overflow: hidden;" viewBox="0 0 1024 1024" version="1.1" xmlns="http://www.w3.org/2000/svg"><path d="M512 916.918857A323.291429 323.291429 0 0 1 189.147429 593.92C189.147429 391.899429 446.317714 107.081143 512 107.081143S834.852571 391.899429 834.852571 593.92A323.291429 323.291429 0 0 1 512 916.918857z m0-765.659428c-40.96 11.556571-278.966857 253.074286-278.966857 442.660571a278.966857 278.966857 0 1 0 557.933714 0c0-189.586286-238.006857-431.104-278.966857-442.660571z"  /><path d="M449.243429 800.475429a22.235429 22.235429 0 0 1-7.460572-1.316572 230.253714 230.253714 0 0 1-136.192-133.558857 21.942857 21.942857 0 0 1 40.96-15.798857 186.514286 186.514286 0 0 0 110.153143 108.105143 21.942857 21.942857 0 0 1-7.460571 42.569143z"  /></svg>